<svg width="56" height="56" viewBox="0 0 56 56" fill="none" xmlns="http://www.w3.org/2000/svg">
<path fill-rule="evenodd" clip-rule="evenodd" d="M28.0657 1.60986L51.9996 14.9905L28.0657 28.3711L4.13184 14.9905L28.0657 1.60986Z" fill="#1D2441"/>
<path fill-rule="evenodd" clip-rule="evenodd" d="M27.5782 0.73701C27.8815 0.567481 28.251 0.567481 28.5542 0.73701L52.4881 14.1176C52.8043 14.2944 53.0001 14.6283 53.0001 14.9905C53.0001 15.0129 52.9994 15.0351 52.9979 15.0573C52.9993 15.079 53 15.1009 53 15.123V41.4869C53 41.8491 52.8042 42.183 52.488 42.3597L28.5541 55.7404C28.2509 55.9099 27.8814 55.9099 27.5782 55.7404L3.64425 42.3597C3.32966 42.1839 3.13405 41.8523 3.13224 41.4919L3.00001 15.1281C2.99845 14.8167 3.13939 14.5378 3.36162 14.3533C3.43924 14.2594 3.53453 14.179 3.64434 14.1176L27.5782 0.73701ZM29.0659 28.9579L51 16.6953V40.9003L29.0659 53.1629V28.9579ZM27.0659 28.9576L5.00755 16.6255L5.12929 40.8986L27.0659 53.1627V28.9576ZM6.18158 14.9905L28.0662 27.2255L49.9509 14.9905L28.0662 2.75553L6.18158 14.9905Z" fill="#1D2441"/>
</svg>
