<svg width="56" height="56" viewBox="0 0 56 56" fill="none" xmlns="http://www.w3.org/2000/svg">
<path fill-rule="evenodd" clip-rule="evenodd" d="M41.3611 19.4917C42.194 20.2988 42.215 21.6282 41.408 22.4612L26.4869 37.8612C26.0914 38.2694 25.5472 38.4999 24.9788 38.4999C24.4103 38.4999 23.8661 38.2694 23.4706 37.8612L17.3916 31.5871C16.5846 30.7542 16.6056 29.4247 17.4385 28.6176C18.2715 27.8106 19.601 27.8316 20.408 28.6645L24.9788 33.382L38.3916 19.5386C39.1987 18.7057 40.5281 18.6847 41.3611 19.4917Z" fill="#1D2441"/>
<path fill-rule="evenodd" clip-rule="evenodd" d="M42.0569 18.7735C40.8274 17.5822 38.8648 17.6132 37.6734 18.8428L24.9788 31.9449L21.1262 27.9687C19.9348 26.7391 17.9723 26.7081 16.7427 27.8995C15.5131 29.0908 15.4821 31.0534 16.6734 32.283L22.7524 38.557C23.3363 39.1597 24.1396 39.4999 24.9788 39.4999C25.8179 39.4999 26.6212 39.1597 27.2051 38.557L42.1262 23.157C43.3175 21.9274 43.2865 19.9649 42.0569 18.7735ZM39.1098 20.2345C39.5325 19.7982 40.2289 19.7872 40.6652 20.2099C41.1015 20.6326 41.1126 21.329 40.6898 21.7653L25.7688 37.1653C25.5616 37.3792 25.2765 37.4999 24.9788 37.4999C24.681 37.4999 24.3959 37.3792 24.1887 37.1653L18.1098 30.8913C17.6871 30.455 17.6981 29.7586 18.1344 29.3358C18.5707 28.9131 19.2671 28.9241 19.6898 29.3604L24.2606 34.0779C24.4489 34.2723 24.7081 34.382 24.9788 34.382C25.2494 34.382 25.5086 34.2723 25.6969 34.0779L39.1098 20.2345Z" fill="#1D2441"/>
<path fill-rule="evenodd" clip-rule="evenodd" d="M0 28C0 12.536 12.536 0 28 0C43.464 0 56 12.536 56 28C56 43.464 43.464 56 28 56C12.536 56 0 43.464 0 28ZM28 54C13.6406 54 2 42.3594 2 28C2 13.6406 13.6406 2 28 2C42.3594 2 54 13.6406 54 28C54 42.3594 42.3594 54 28 54Z" fill="#1D2441"/>
</svg>
