<svg width="40" height="40" viewBox="0 0 40 40" fill="none" xmlns="http://www.w3.org/2000/svg">
<g clip-path="url(#clip0_3037_2657)">
<path d="M0 20C0 8.95438 8.95444 0 20.0001 0C31.0457 0 40.0001 8.95438 40.0001 20C40.0001 31.0456 31.0457 40 20.0001 40C8.95444 40 0 31.0456 0 20Z" fill="#7950DA"/>
<path d="M19.9994 9.65512L14.0066 20.0299L19.9994 23.4482L25.9928 20.0299L19.9994 9.65512Z" fill="white"/>
<path d="M19.9994 26.2066L13.7925 22.7586L19.9994 30.3447L26.2063 22.7586L19.9994 26.2066Z" fill="white"/>
<path d="M20.0002 5.51665C13.9419 5.51665 8.73806 9.1984 6.58342 14.5433C6.5828 14.5458 6.58154 14.5483 6.58091 14.5508C6.15086 15.6184 5.83178 16.7462 5.66377 17.9304H0.106354C0.059964 18.3855 0.0330063 18.8463 0.017334 19.3096H6.27561C6.63044 19.3096 6.92696 19.0413 6.96206 18.6883C7.05171 17.7781 7.23978 16.9023 7.50057 16.0616L8.47789 17.039C8.60703 17.1681 8.78257 17.2408 8.96562 17.2408H13.1031C13.4843 17.2408 13.7933 16.9324 13.7933 16.5512C13.7933 16.1701 13.4843 15.8617 13.1031 15.8617H9.25086L8.03844 14.6486C10.0846 10.0384 14.6766 6.89582 20.0002 6.89582C20.3813 6.89582 20.6898 6.58739 20.6898 6.20623C20.6898 5.82508 20.3813 5.51665 20.0002 5.51665Z" fill="#4722A0"/>
<path d="M39.4096 15.1726H36.5532C34.4152 7.83693 27.6843 2.75865 19.9998 2.75865C12.3154 2.75865 5.58452 7.83693 3.44643 15.1726H0.590059C0.477868 15.6259 0.383088 16.0862 0.30249 16.5518H3.97257C4.28658 16.5518 4.56125 16.339 4.63927 16.034C6.44852 9.03041 12.7648 4.13783 19.9998 4.13783C27.2349 4.13783 33.5512 9.03041 35.3604 16.034C35.4384 16.339 35.7131 16.5518 36.0271 16.5518H39.6972C39.6166 16.0862 39.5218 15.6259 39.4096 15.1726Z" fill="#4722A0"/>
<path d="M39.8938 17.9299H34.3343C34.1675 16.7726 33.8591 15.6424 33.4227 14.5653C33.4169 14.5511 33.4098 14.5375 33.4033 14.5233C32.6786 12.7544 31.6079 11.1284 30.2392 9.76031C29.9696 9.49071 29.5332 9.49071 29.2636 9.76031C28.9946 10.0293 28.9946 10.4657 29.2636 10.7353C30.4008 11.8725 31.304 13.2076 31.9532 14.6571L30.7487 15.861H26.8966C26.5152 15.861 26.2068 16.17 26.2068 16.5508C26.2068 16.9323 26.5152 17.2407 26.8966 17.2407H31.0344C31.2174 17.2407 31.3926 17.1676 31.5219 17.039L32.4885 16.0717C32.7568 16.9213 32.9488 17.7954 33.038 18.6883C33.0729 19.0413 33.3697 19.3096 33.7246 19.3096H39.9824C39.9669 18.846 39.9404 18.3857 39.8938 17.9299Z" fill="#4722A0"/>
<path d="M33.7242 20.6903C33.3693 20.6903 33.0725 20.9593 33.0376 21.3123C32.9477 22.2219 32.7602 23.098 32.499 23.9385L31.5215 22.9616C31.3922 22.8323 31.217 22.7592 31.034 22.7592H28.2753C27.8944 22.7592 27.5854 23.0683 27.5854 23.4491C27.5854 23.8305 27.8944 24.1389 28.2753 24.1389H30.7482L31.9611 25.3518C29.9149 29.9616 25.3226 33.1043 19.9997 33.1043C19.6182 33.1043 19.3098 33.4127 19.3098 33.7942C19.3098 34.175 19.6182 34.4834 19.9997 34.4834C26.0577 34.4834 31.2616 30.8014 33.4158 25.4572C33.4171 25.4539 33.4178 25.452 33.4191 25.4488C33.8484 24.3814 34.1677 23.2545 34.3358 22.07H39.8934C39.94 21.6149 39.9665 21.1539 39.982 20.6903H33.7242Z" fill="#4722A0"/>
<path d="M36.0271 23.4478C35.7131 23.4478 35.4384 23.6606 35.3604 23.9649C33.5512 30.9691 27.2349 35.8611 19.9998 35.8611C12.7648 35.8611 6.44852 30.9691 4.63927 23.9649C4.56125 23.6606 4.28658 23.4478 3.97257 23.4478H0.30249C0.383088 23.9127 0.477868 24.373 0.590059 24.827H3.44643C5.58452 32.1626 12.3154 37.2402 19.9998 37.2402C27.6843 37.2402 34.4152 32.1626 36.5532 24.827H39.4096C39.5218 24.373 39.6166 23.9127 39.6972 23.4478H36.0271Z" fill="#4722A0"/>
<path d="M11.7238 22.7603H8.96504C8.78248 22.7603 8.60685 22.8329 8.47767 22.9621L7.51095 23.9288C7.24297 23.0796 7.0508 22.2052 6.96165 21.3126C6.92642 20.9598 6.62963 20.6913 6.27518 20.6913H0.017334C0.0328145 21.1546 0.0595028 21.6153 0.105944 22.0707H5.66504C5.83212 23.2285 6.14066 24.3586 6.57731 25.4353C6.58265 25.4497 6.59013 25.463 6.59653 25.4774C7.32091 27.2465 8.39173 28.8725 9.76042 30.2406C9.89547 30.3751 10.0722 30.4424 10.2483 30.4424C10.4245 30.4424 10.6012 30.3751 10.7357 30.2406C11.0053 29.971 11.0053 29.5349 10.7357 29.2653C9.59867 28.1283 8.69547 26.7927 8.04689 25.3434L9.25063 24.1397H11.7238C12.1049 24.1397 12.4135 23.8312 12.4135 23.45C12.4135 23.0689 12.1049 22.7603 11.7238 22.7603Z" fill="#4722A0"/>
<path d="M8.96541 19.3109C8.58365 19.3109 8.27563 19.6194 8.27563 20.0007C8.27563 20.3819 8.58365 20.6904 8.96541 20.6904H11.7245C12.1052 20.6904 12.4137 20.3819 12.4137 20.0007C12.4137 19.6194 12.1052 19.3109 11.7245 19.3109H8.96541Z" fill="#4722A0"/>
<path d="M28.2756 20.6904H31.0351C31.4164 20.6904 31.7245 20.3818 31.7245 20.0004C31.7245 19.6197 31.4164 19.311 31.0351 19.311H28.2756C27.8948 19.311 27.5862 19.6197 27.5862 20.0004C27.5862 20.3818 27.8948 20.6904 28.2756 20.6904Z" fill="#4722A0"/>
<path d="M28.2754 4.82614C28.2754 4.06376 27.6582 3.44656 26.8964 3.44656C26.1347 3.44656 25.5168 4.06376 25.5168 4.82614C25.5168 5.58788 26.1347 6.20508 26.8964 6.20508C27.6582 6.20508 28.2754 5.58788 28.2754 4.82614Z" fill="#4722A0"/>
<path d="M13.7931 34.4859C13.7931 33.7241 13.1756 33.1065 12.4138 33.1065C11.6519 33.1065 11.0344 33.7241 11.0344 34.4859C11.0344 35.2477 11.6519 35.8652 12.4138 35.8652C13.1756 35.8652 13.7931 35.2477 13.7931 34.4859Z" fill="#4722A0"/>
</g>
<defs>
<clipPath id="clip0_3037_2657">
<rect width="40.0001" height="40" fill="white" transform="matrix(1 0 0 -1 0 40)"/>
</clipPath>
</defs>
</svg>
