<svg width="40" height="40" viewBox="0 0 40 40" fill="none" xmlns="http://www.w3.org/2000/svg">
<g clip-path="url(#clip0_3037_2742)">
<path d="M0 20C0 8.95454 8.95427 0 19.9998 0C31.0453 0 39.9996 8.95454 39.9996 20C39.9996 31.0456 31.0453 40 19.9998 40C8.95427 40 0 31.0456 0 20Z" fill="#0E7C7B"/>
<path d="M12.2341 24.484V15.5185L19.9995 11.0357L27.7635 15.5185V24.484L19.9995 28.9668L12.2341 24.484Z" fill="white"/>
<path d="M24.8904 22.8239V17.177L19.9994 14.3536L15.1096 17.177V22.8239L19.9994 25.6475L24.8904 22.8239Z" fill="#0E7C7B"/>
<path d="M19.9999 5.5166C13.9419 5.5166 8.73732 9.19839 6.58347 14.5432C6.58218 14.546 6.58091 14.5483 6.57962 14.551C6.15039 15.6186 5.83135 16.746 5.6635 17.9303H0.10526C0.0591333 18.3855 0.0322212 18.8461 0.0168457 19.3096H6.27468C6.6296 19.3096 6.92685 19.0411 6.96145 18.688C7.05114 17.7782 7.2395 16.9023 7.50088 16.0619L8.47723 17.0389C8.60664 17.168 8.78217 17.2407 8.96539 17.2407H9.65473C10.0353 17.2407 10.3441 16.9321 10.3441 16.551C10.3441 16.1699 10.0353 15.8614 9.65473 15.8614H9.25112L8.03773 14.6485C10.084 10.0384 14.6761 6.89591 19.9999 6.89591C20.3804 6.89591 20.6892 6.58737 20.6892 6.20619C20.6892 5.82501 20.3804 5.5166 19.9999 5.5166Z" fill="#094E4D"/>
<path d="M39.4088 15.1715H36.5529C34.4155 7.83584 27.6846 2.75768 19.999 2.75768C12.3147 2.75768 5.58376 7.83584 3.44637 15.1715H0.58906C0.477228 15.6252 0.382171 16.0854 0.30249 16.5508H3.97199C4.28652 16.5508 4.56049 16.3379 4.63878 16.0334C6.44766 9.02937 12.7634 4.13699 19.999 4.13699C27.2345 4.13699 33.5502 9.02937 35.3591 16.0334C35.4374 16.3379 35.7128 16.5508 36.0273 16.5508H39.6968C39.6157 16.0854 39.5221 15.6252 39.4088 15.1715Z" fill="#094E4D"/>
<path d="M39.894 17.9302H34.3346C34.168 16.7726 33.8587 15.6425 33.422 14.5656C33.4164 14.5509 33.4094 14.5376 33.4024 14.5233C32.6788 12.7541 31.6081 11.1285 30.2392 9.76015C29.9691 9.49072 29.5324 9.49072 29.2636 9.76015C28.9935 10.0296 28.9935 10.4659 29.2636 10.7353C30.4002 11.8724 31.3043 13.2079 31.9524 14.6571L30.7487 15.8612H30.3442C29.9635 15.8612 29.6541 16.1697 29.6541 16.551C29.6541 16.9321 29.9635 17.2406 30.3442 17.2406H31.0342C31.2176 17.2406 31.3925 17.168 31.5213 17.0388L32.4884 16.0719C32.7558 16.9211 32.9489 17.7956 33.0385 18.6884C33.0721 19.041 33.3702 19.3096 33.7243 19.3096H39.9822C39.9668 18.8461 39.9402 18.3854 39.894 17.9302Z" fill="#094E4D"/>
<path d="M33.7244 20.6903C33.3689 20.6903 33.0721 20.9588 33.0385 21.3119C32.9476 22.2218 32.76 23.0976 32.4997 23.9381L31.5213 22.9611C31.3925 22.8319 31.2176 22.7593 31.0342 22.7593H30.3442C29.9635 22.7593 29.6542 23.0678 29.6542 23.4489C29.6542 23.83 29.9635 24.1385 30.3442 24.1385H30.7487L31.9622 25.3515C29.9145 29.9615 25.3222 33.1041 19.9994 33.1041C19.6186 33.1041 19.3093 33.4126 19.3093 33.7937C19.3093 34.1749 19.6186 34.4834 19.9994 34.4834C26.0571 34.4834 31.2624 30.8016 33.4165 25.4567C33.4179 25.4539 33.4178 25.4517 33.4192 25.4489C33.8489 24.3814 34.1681 23.2539 34.336 22.0696H39.8941C39.9402 21.6144 39.9668 21.1538 39.9822 20.6903H33.7244Z" fill="#094E4D"/>
<path d="M36.0273 23.4471C35.7128 23.4471 35.4374 23.66 35.3591 23.9645C33.5502 30.9685 27.2345 35.8609 19.999 35.8609C12.7634 35.8609 6.44766 30.9685 4.63878 23.9645C4.56049 23.66 4.28652 23.4471 3.97199 23.4471H0.30249C0.382171 23.9125 0.477228 24.3726 0.58906 24.8264H3.44637C5.58376 32.162 12.3147 37.2402 19.999 37.2402C27.6846 37.2402 34.4155 32.162 36.5529 24.8264H39.4088C39.5221 24.3726 39.6157 23.9125 39.6968 23.4471H36.0273Z" fill="#094E4D"/>
<path d="M8.0468 25.3415L9.25035 24.1374H9.65479C10.036 24.1374 10.3439 23.829 10.3439 23.4477C10.3439 23.0666 10.036 22.7581 9.65479 22.7581H8.96443C8.78237 22.7581 8.60641 22.8308 8.47689 22.96L7.51039 23.9268C7.2428 23.0776 7.05096 22.2031 6.96176 21.3103C6.92633 20.9577 6.62942 20.6891 6.27508 20.6891H0.0166016C0.032486 21.1526 0.059365 21.6133 0.105796 22.0685H5.66413C5.83153 23.2262 6.14066 24.3563 6.57687 25.433C6.58298 25.4477 6.59032 25.4611 6.59643 25.4753C7.321 27.2446 8.39136 28.8703 9.75987 30.2386C9.8955 30.3732 10.0714 30.4404 10.2486 30.4404C10.4246 30.4404 10.6005 30.3732 10.7349 30.2386C11.005 29.9692 11.005 29.5328 10.7349 29.2634C9.59859 28.1264 8.69562 26.7908 8.0468 25.3415Z" fill="#094E4D"/>
<path d="M30.3444 20.6895H31.0351C31.4168 20.6895 31.7244 20.3809 31.7244 19.9998C31.7244 19.6186 31.4168 19.3101 31.0351 19.3101H30.3444C29.964 19.3101 29.655 19.6186 29.655 19.9998C29.655 20.3809 29.964 20.6895 30.3444 20.6895Z" fill="#094E4D"/>
<path d="M9.65471 19.3101H8.9642C8.58302 19.3101 8.2749 19.6186 8.2749 19.9998C8.2749 20.381 8.58302 20.6895 8.9642 20.6895H9.65471C10.0359 20.6895 10.344 20.381 10.344 19.9998C10.344 19.6186 10.0359 19.3101 9.65471 19.3101Z" fill="#094E4D"/>
<path d="M28.2754 4.8267C28.2754 4.06479 27.6579 3.44735 26.8957 3.44735C26.1335 3.44735 25.5161 4.06479 25.5161 4.8267C25.5161 5.58848 26.1335 6.20605 26.8957 6.20605C27.6579 6.20605 28.2754 5.58848 28.2754 4.8267Z" fill="#094E4D"/>
<path d="M13.7929 34.484C13.7929 33.7221 13.1759 33.1046 12.4139 33.1046C11.6519 33.1046 11.0337 33.7221 11.0337 34.484C11.0337 35.2458 11.6519 35.8633 12.4139 35.8633C13.1759 35.8633 13.7929 35.2458 13.7929 34.484Z" fill="#094E4D"/>
</g>
<defs>
<clipPath id="clip0_3037_2742">
<rect width="39.9996" height="40" fill="white" transform="matrix(1 0 0 -1 0 40)"/>
</clipPath>
</defs>
</svg>
