<svg width="20" height="20" viewBox="0 0 20 20" fill="none" xmlns="http://www.w3.org/2000/svg">
<g clip-path="url(#clip0_520_171)">
<path d="M18.571 11.663V4.78796C17.3136 5.46505 16.1752 5.80359 15.1558 5.80359C14.5457 5.80359 14.0063 5.68454 13.5375 5.44645C12.7935 5.08186 12.109 4.79726 11.484 4.59265C10.859 4.38804 10.1968 4.28573 9.49735 4.28573C8.21015 4.28573 6.71089 4.7582 4.99958 5.70314V12.3884C6.8225 11.5476 8.43336 11.1272 9.83217 11.1272C10.2414 11.1272 10.6264 11.1552 10.9873 11.211C11.3482 11.2668 11.7128 11.3635 12.0811 11.5011C12.4494 11.6388 12.7358 11.7541 12.9404 11.8471C13.145 11.9401 13.452 12.0871 13.8612 12.288L14.1737 12.4442C14.5011 12.6079 14.8768 12.6897 15.3009 12.6897C16.1938 12.6897 17.2838 12.3475 18.571 11.663ZM3.57101 2.85716C3.57101 3.11758 3.50591 3.35567 3.3757 3.57145C3.24549 3.78722 3.0725 3.95835 2.85672 4.08484V18.2143C2.85672 18.3185 2.82324 18.404 2.75628 18.471C2.68931 18.538 2.60375 18.5714 2.49958 18.5714H1.7853C1.68113 18.5714 1.59556 18.538 1.5286 18.471C1.46164 18.404 1.42815 18.3185 1.42815 18.2143V4.08484C1.21238 3.95835 1.03939 3.78722 0.90918 3.57145C0.778971 3.35567 0.713867 3.11758 0.713867 2.85716C0.713867 2.46282 0.853376 2.12613 1.13239 1.84712C1.41141 1.5681 1.74809 1.42859 2.14244 1.42859C2.53678 1.42859 2.87347 1.5681 3.15248 1.84712C3.4315 2.12613 3.57101 2.46282 3.57101 2.85716ZM19.9996 3.57145V12.0871C19.9996 12.3772 19.8694 12.5893 19.609 12.7232C19.5346 12.7604 19.4713 12.7939 19.4192 12.8237C17.7972 13.6868 16.4244 14.1183 15.3009 14.1183C14.6462 14.1183 14.0584 13.9881 13.5375 13.7277L13.225 13.5714C12.7488 13.3259 12.3805 13.1473 12.1201 13.0357C11.8597 12.9241 11.5212 12.8162 11.1045 12.7121C10.6878 12.6079 10.2637 12.5558 9.83217 12.5558C9.07324 12.5558 8.19713 12.7195 7.20382 13.0469C6.21052 13.3743 5.36044 13.7537 4.6536 14.1853C4.54199 14.2522 4.41922 14.2857 4.2853 14.2857C4.16625 14.2857 4.0472 14.256 3.92815 14.1964C3.69006 14.0551 3.57101 13.8467 3.57101 13.5714V5.2902C3.57101 5.02978 3.68634 4.82517 3.91699 4.67636C4.17741 4.52011 4.46945 4.362 4.79311 4.20203C5.11677 4.04206 5.54088 3.8486 6.06543 3.62167C6.58998 3.39473 7.15732 3.21058 7.76744 3.06921C8.37756 2.92784 8.9542 2.85716 9.49735 2.85716C10.3307 2.85716 11.1082 2.97249 11.8299 3.20314C12.5517 3.4338 13.3292 3.75374 14.1625 4.16296C14.4453 4.30433 14.7764 4.37502 15.1558 4.37502C16.0636 4.37502 17.2168 3.95835 18.6157 3.12502C18.7793 3.03573 18.8947 2.97249 18.9616 2.93529C19.1923 2.81624 19.4229 2.82368 19.6536 2.95761C19.8843 3.10642 19.9996 3.31103 19.9996 3.57145Z" fill="#1D2441"/>
</g>
<defs>
<clipPath id="clip0_520_171">
<rect width="20" height="20" fill="white"/>
</clipPath>
</defs>
</svg>
