<svg width="24" height="24" viewBox="0 0 24 24" fill="none" xmlns="http://www.w3.org/2000/svg">
<path d="M23.5087 15.3862C23.8275 14.31 24 13.1737 24 12C24 9.7575 23.3813 7.6575 22.305 5.86125V5.8575C22.3013 5.85 22.2938 5.84625 22.2938 5.83875C20.1938 2.34375 16.365 0 12 0C5.88 0 0.82125 4.605 0.09375 10.53C0.09375 10.5337 0.09375 10.5375 0.09375 10.5375C0.03375 11.0175 0 11.505 0 12C0 18.615 5.385 24 12 24C17.4075 24 21.99 20.4037 23.4862 15.4762C23.4975 15.4462 23.505 15.4162 23.5087 15.3862ZM0.7275 12C0.7275 11.7037 0.7425 11.415 0.765 11.1225C1.96125 11.6737 3.6075 12.1987 5.67375 12.6825C5.7975 12.7125 5.92875 12.735 6.0525 12.765C6.0975 14.2163 6.2625 15.5887 6.52875 16.845C6.5175 16.8412 6.5025 16.8413 6.49125 16.8375C4.45125 16.4213 2.60625 15.7913 1.13625 15.015C0.87375 14.055 0.7275 13.0425 0.7275 12ZM2.26875 6.3225C3.36375 6.6975 5.19 7.2 6.465 7.4775C6.19125 8.86875 6.04125 10.3912 6.04125 12C6.04125 12.0075 6.04125 12.0112 6.04125 12.0187C5.97375 12.0037 5.90625 11.9888 5.83875 11.9738C3.67875 11.4713 2.01 10.9275 0.85125 10.3538C1.06125 8.9025 1.5525 7.54125 2.26875 6.3225ZM23.1225 10.1812C21.8175 11.0025 19.9875 11.7262 18.1763 12.1388C18.105 12.1537 18.0263 12.165 17.955 12.18C17.955 12.12 17.9587 12.06 17.9587 12C17.9587 10.4887 17.8275 9.0525 17.5837 7.7325C17.6025 7.72875 17.6175 7.72875 17.6362 7.725C19.0125 7.485 20.8425 6.82125 21.8063 6.44625C22.4513 7.5825 22.905 8.8425 23.1225 10.1812ZM17.2313 12C17.2313 12.105 17.2275 12.2063 17.2275 12.3113C15.7087 12.5738 14.0813 12.7013 12.3638 12.6975V8.11875C12.5138 8.1225 12.66 8.1225 12.8063 8.1225C14.2013 8.1225 15.5512 8.025 16.845 7.84125C17.0925 9.135 17.2313 10.5413 17.2313 12ZM6.76875 12C6.76875 10.4587 6.9225 8.97375 7.19625 7.62C8.64 7.88625 10.1287 8.04375 11.6363 8.09625V12.6937C9.9975 12.6487 8.34 12.4725 6.76875 12.1688C6.76875 12.1125 6.76875 12.0562 6.76875 12ZM12.3638 7.39125V0.7575C14.2463 1.05 15.8887 3.6 16.6987 7.125C15.315 7.32 13.8675 7.41 12.3638 7.39125ZM11.6363 0.7575V7.365C10.185 7.3125 8.74875 7.15875 7.35375 6.9075C8.17875 3.49875 9.795 1.04625 11.6363 0.7575ZM6.7875 12.9113C8.35875 13.2037 10.005 13.3763 11.6363 13.4213V17.4188C10.1663 17.3775 8.7225 17.235 7.33125 16.9913C7.035 15.735 6.84375 14.355 6.7875 12.9113ZM11.6363 18.1425V23.2388C9.91875 22.9688 8.39625 20.82 7.53 17.76C8.865 17.9813 10.2375 18.105 11.6363 18.1425ZM12.3638 23.2425V18.1613C12.4125 18.1613 12.4613 18.1613 12.51 18.1613C13.8638 18.1613 15.1725 18.075 16.425 17.9062C15.555 20.8875 14.055 22.9762 12.3638 23.2425ZM12.3638 17.4263V13.4325C12.4013 13.4325 12.4387 13.4325 12.4725 13.4325C14.1337 13.4325 15.7163 13.3012 17.205 13.0575C17.1375 14.5087 16.9387 15.885 16.6312 17.1337C15.2775 17.3363 13.845 17.4338 12.3638 17.4263ZM17.94 12.9225C18.0713 12.8962 18.2062 12.8775 18.3337 12.8512C20.0963 12.4538 21.8775 11.7638 23.2238 10.9762C23.2537 11.3138 23.2725 11.655 23.2725 12.0037C23.2725 13.08 23.1187 14.1225 22.8337 15.1088C21.4425 15.9563 19.6012 16.6125 17.4938 17.0025C17.475 17.0063 17.4525 17.01 17.4338 17.0138C17.7113 15.7537 17.8875 14.3775 17.94 12.9225ZM21.42 5.81625C20.4562 6.1875 18.7725 6.7875 17.5125 7.00875C17.49 7.0125 17.4637 7.01625 17.4412 7.02C16.8412 4.3125 15.765 2.16375 14.4113 0.99C17.325 1.6275 19.8263 3.3975 21.42 5.81625ZM9.5925 0.99C8.28 2.12625 7.22625 4.1775 6.61875 6.76875C5.43 6.51 3.75 6.0525 2.66625 5.68875C4.26 3.33375 6.72375 1.61625 9.5925 0.99ZM1.455 15.9862C2.865 16.65 4.50375 17.175 6.345 17.55C6.465 17.5763 6.58875 17.5912 6.70875 17.6175C7.3275 20.025 8.34 21.93 9.58875 23.0138C5.84625 22.1925 2.79375 19.5075 1.455 15.9862ZM14.4075 23.01C15.6262 21.9525 16.6238 20.1075 17.2463 17.775C17.37 17.7525 17.5012 17.7375 17.625 17.715C19.5037 17.37 21.1275 16.8375 22.4813 16.1362C21.1163 19.5863 18.0975 22.2038 14.4075 23.01Z" fill="#1D2441"/>
</svg>
