<svg width="56" height="56" viewBox="0 0 56 56" fill="none" xmlns="http://www.w3.org/2000/svg">
<g clip-path="url(#clip0_519_147)">
<path d="M6.52539 19.966V2.4C6.52539 2.17909 6.70448 2 6.92539 2H18.3394C18.5603 2 18.7394 2.17908 18.7394 2.4V19.966C18.7394 20.3224 18.3085 20.5008 18.0565 20.2488L12.9152 15.1075C12.759 14.9513 12.5058 14.9513 12.3495 15.1075L7.20823 20.2488C6.95625 20.5008 6.52539 20.3224 6.52539 19.966Z" fill="#1D2441"/>
<path d="M49.0835 53C49.0835 54.6569 47.7403 56 46.0835 56H8.86133C7.20448 56 5.86133 54.6569 5.86133 53V26.129C5.86133 25.5767 6.30905 25.129 6.86133 25.129C7.41362 25.129 7.86133 25.5767 7.86133 26.129V53C7.86133 53.5523 8.30904 54 8.86133 54H46.0835C46.6358 54 47.0835 53.5523 47.0835 53V4.00003C47.0835 3.44774 46.6358 3.00003 46.0835 3.00003L25.8846 3.00002C25.3323 3.00002 24.8846 2.55231 24.8846 2.00002C24.8846 1.44774 25.3323 1.00002 25.8846 1.00002L46.0835 1.00003C47.7404 1.00003 49.0835 2.34317 49.0835 4.00003V53Z" fill="#1D2441"/>
<path d="M42.3655 45.229C42.3655 45.7813 41.9178 46.229 41.3655 46.229H13.2734C12.7211 46.229 12.2734 45.7813 12.2734 45.229C12.2734 44.6767 12.7211 44.229 13.2734 44.229H41.3655C41.9178 44.229 42.3655 44.6767 42.3655 45.229Z" fill="#1D2441"/>
<path d="M41.3655 37.6792C41.9178 37.6792 42.3655 37.2315 42.3655 36.6792C42.3655 36.1269 41.9178 35.6792 41.3655 35.6792H13.2734C12.7211 35.6792 12.2734 36.1269 12.2734 36.6792C12.2734 37.2315 12.7211 37.6792 13.2734 37.6792H41.3655Z" fill="#1D2441"/>
<path d="M42.3655 28.1294C42.3655 28.6817 41.9178 29.1294 41.3655 29.1294H13.2734C12.7211 29.1294 12.2734 28.6817 12.2734 28.1294C12.2734 27.5771 12.7211 27.1294 13.2734 27.1294H41.3655C41.9178 27.1294 42.3655 27.5771 42.3655 28.1294Z" fill="#1D2441"/>
<path d="M41.3652 20.5796C41.9175 20.5796 42.3652 20.1319 42.3652 19.5796C42.3652 19.0273 41.9175 18.5796 41.3652 18.5796H26.3652C25.8129 18.5796 25.3652 19.0273 25.3652 19.5796C25.3652 20.1319 25.8129 20.5796 26.3652 20.5796H41.3652Z" fill="#1D2441"/>
<path d="M42.3652 11.0298C42.3652 11.5821 41.9175 12.0298 41.3652 12.0298H26.3652C25.8129 12.0298 25.3652 11.5821 25.3652 11.0298C25.3652 10.4775 25.8129 10.0298 26.3652 10.0298H41.3652C41.9175 10.0298 42.3652 10.4775 42.3652 11.0298Z" fill="#1D2441"/>
<path fill-rule="evenodd" clip-rule="evenodd" d="M6.92539 1C6.15219 1 5.52539 1.6268 5.52539 2.4V19.966C5.52539 21.2133 7.0334 21.8379 7.91534 20.9559L12.6324 16.2389L17.3494 20.9559C18.2314 21.8379 19.7394 21.2133 19.7394 19.966V2.4C19.7394 1.6268 19.1126 1 18.3394 1H6.92539ZM7.52539 18.5175V3H17.7394V18.5175L13.6223 14.4004C13.0756 13.8537 12.1892 13.8537 11.6424 14.4004L7.52539 18.5175Z" fill="#1D2441"/>
</g>
<defs>
<clipPath id="clip0_519_147">
<rect width="56" height="56" fill="white"/>
</clipPath>
</defs>
</svg>
