<svg width="56" height="56" viewBox="0 0 56 56" fill="none" xmlns="http://www.w3.org/2000/svg">
<path fill-rule="evenodd" clip-rule="evenodd" d="M26.5889 1C26.5889 1 32.7402 5.81503 37.3389 7.75142C40.6567 9.14849 44.2854 9.31488 46.0493 9.29919C46.6339 9.29399 47.1333 9.76103 47.1333 10.3457V40.0823C47.1333 44.2934 44.4612 48.0405 40.4799 49.4124L26.5889 54.1993V1Z" fill="#1D2441"/>
<path fill-rule="evenodd" clip-rule="evenodd" d="M28.6554 1.30228C27.4167 0.395172 25.7199 0.477822 24.557 1.43766C22.8178 2.87327 19.6904 5.22436 16.4064 6.60717C13.6734 7.75793 11.0679 8.14057 9.29921 8.25273C7.5804 8.36172 6 9.75537 6 11.625V40.193C6 44.7712 8.86884 48.8584 13.1744 50.4145L25.917 55.0198C26.3467 55.175 26.8165 55.1786 27.2484 55.0297L40.8057 50.3579C45.1905 48.8469 48.1333 44.7201 48.1333 40.0824V11.6038C48.1333 9.74591 46.5692 8.35 44.8333 8.27954C42.952 8.20318 40.2289 7.88332 37.727 6.82981C34.6398 5.52991 30.762 2.84496 28.6554 1.30228ZM25.5996 3.16914C23.7697 4.65959 20.5905 7.01541 17.1825 8.45042C14.1853 9.71248 11.3453 10.127 9.42578 10.2487C8.61002 10.3004 8 10.955 8 11.625V40.193C8 43.9287 10.3409 47.2638 13.8542 48.5336L25.5996 52.7785V3.16914ZM27.5996 52.7933L40.1541 48.467C43.732 47.2341 46.1333 43.8667 46.1333 40.0824V11.6038C46.1333 10.9374 45.5384 10.3098 44.7522 10.2779C42.7567 10.1969 39.7649 9.85799 36.9508 8.67307C33.6874 7.29892 29.7317 4.56334 27.5978 3.00657C27.599 3.02652 27.5996 3.04664 27.5996 3.06689V52.7933Z" fill="#1D2441"/>
</svg>
