<svg width="24" height="24" viewBox="0 0 24 24" fill="none" xmlns="http://www.w3.org/2000/svg">
<path d="M12 21C16.9706 21 21 16.9706 21 12C21 7.02944 16.9706 3 12 3C7.02944 3 3 7.02944 3 12C3 16.9706 7.02944 21 12 21Z" stroke="#7950DA" stroke-width="1.125" stroke-linecap="round" stroke-linejoin="round"/>
<path d="M15.8979 14.2496C15.5026 14.9335 14.9343 15.5013 14.2501 15.896C13.5659 16.2907 12.7899 16.4985 12 16.4986C11.2101 16.4986 10.4341 16.2908 9.74993 15.896C9.06574 15.5013 8.49742 14.9335 8.10205 14.2497" stroke="#7950DA" stroke-width="1.125" stroke-linecap="round" stroke-linejoin="round"/>
<path d="M8.625 11.0625C9.14277 11.0625 9.5625 10.6428 9.5625 10.125C9.5625 9.60723 9.14277 9.1875 8.625 9.1875C8.10723 9.1875 7.6875 9.60723 7.6875 10.125C7.6875 10.6428 8.10723 11.0625 8.625 11.0625Z" fill="#7950DA"/>
<path d="M15.375 11.0625C15.8928 11.0625 16.3125 10.6428 16.3125 10.125C16.3125 9.60723 15.8928 9.1875 15.375 9.1875C14.8572 9.1875 14.4375 9.60723 14.4375 10.125C14.4375 10.6428 14.8572 11.0625 15.375 11.0625Z" fill="#7950DA"/>
</svg>
